<mxfile host="app.diagrams.net" modified="2024-03-28T12:58:06.876Z" agent="Mozilla/5.0 (X11; Linux x86_64) AppleWebKit/537.36 (KHTML, like Gecko) Chrome/113.0.0.0 Safari/537.36" etag="SNQ0IeOQrFimPrWatLyx" version="24.2.0" type="device">
  <diagram name="Page-1" id="5937TVm-rHJbBidxR9xB">
    <mxGraphModel dx="1434" dy="775" grid="1" gridSize="10" guides="1" tooltips="1" connect="1" arrows="1" fold="1" page="1" pageScale="1" pageWidth="1100" pageHeight="850" math="0" shadow="0">
      <root>
        <mxCell id="0" />
        <mxCell id="1" parent="0" />
        <mxCell id="EvsKpGBrO3yVTtWsbhh3-1" value="" style="outlineConnect=0;dashed=0;verticalLabelPosition=bottom;verticalAlign=top;align=center;html=1;shape=mxgraph.aws3.api_gateway;fillColor=#D9A741;gradientColor=none;" vertex="1" parent="1">
          <mxGeometry x="300" y="170" width="76.5" height="93" as="geometry" />
        </mxCell>
        <mxCell id="EvsKpGBrO3yVTtWsbhh3-2" value="" style="outlineConnect=0;dashed=0;verticalLabelPosition=bottom;verticalAlign=top;align=center;html=1;shape=mxgraph.aws3.lambda_function;fillColor=#F58534;gradientColor=none;" vertex="1" parent="1">
          <mxGeometry x="580" y="303" width="69" height="72" as="geometry" />
        </mxCell>
        <mxCell id="EvsKpGBrO3yVTtWsbhh3-3" value="" style="outlineConnect=0;dashed=0;verticalLabelPosition=bottom;verticalAlign=top;align=center;html=1;shape=mxgraph.aws3.s3;fillColor=#E05243;gradientColor=none;" vertex="1" parent="1">
          <mxGeometry x="300" y="417.5" width="76.5" height="93" as="geometry" />
        </mxCell>
        <mxCell id="EvsKpGBrO3yVTtWsbhh3-5" value="Amazon DynamoDB" style="sketch=0;outlineConnect=0;fontColor=#232F3E;gradientColor=none;strokeColor=#ffffff;fillColor=#232F3E;dashed=0;verticalLabelPosition=middle;verticalAlign=bottom;align=center;html=1;whiteSpace=wrap;fontSize=10;fontStyle=1;spacing=3;shape=mxgraph.aws4.productIcon;prIcon=mxgraph.aws4.dynamodb;" vertex="1" parent="1">
          <mxGeometry x="950" y="297.5" width="90" height="120" as="geometry" />
        </mxCell>
        <mxCell id="EvsKpGBrO3yVTtWsbhh3-6" value="" style="sketch=0;points=[[0,0,0],[0.25,0,0],[0.5,0,0],[0.75,0,0],[1,0,0],[0,1,0],[0.25,1,0],[0.5,1,0],[0.75,1,0],[1,1,0],[0,0.25,0],[0,0.5,0],[0,0.75,0],[1,0.25,0],[1,0.5,0],[1,0.75,0]];points=[[0,0,0],[0.25,0,0],[0.5,0,0],[0.75,0,0],[1,0,0],[0,1,0],[0.25,1,0],[0.5,1,0],[0.75,1,0],[1,1,0],[0,0.25,0],[0,0.5,0],[0,0.75,0],[1,0.25,0],[1,0.5,0],[1,0.75,0]];outlineConnect=0;fontColor=#232F3E;fillColor=#E7157B;strokeColor=#ffffff;dashed=0;verticalLabelPosition=bottom;verticalAlign=top;align=center;html=1;fontSize=12;fontStyle=0;aspect=fixed;shape=mxgraph.aws4.resourceIcon;resIcon=mxgraph.aws4.cloudwatch_2;" vertex="1" parent="1">
          <mxGeometry x="570.5" y="50" width="88" height="88" as="geometry" />
        </mxCell>
        <mxCell id="EvsKpGBrO3yVTtWsbhh3-7" value="" style="shape=image;html=1;verticalAlign=top;verticalLabelPosition=bottom;labelBackgroundColor=#ffffff;imageAspect=0;aspect=fixed;image=https://cdn3.iconfinder.com/data/icons/cad-database-presentation-spreadsheet-vector-fil-2/512/19-128.png" vertex="1" parent="1">
          <mxGeometry x="60" y="435" width="58" height="58" as="geometry" />
        </mxCell>
        <mxCell id="EvsKpGBrO3yVTtWsbhh3-8" value="" style="sketch=0;aspect=fixed;pointerEvents=1;shadow=0;dashed=0;html=1;strokeColor=none;labelPosition=center;verticalLabelPosition=bottom;verticalAlign=top;align=center;fillColor=#00188D;shape=mxgraph.mscae.enterprise.workstation_client" vertex="1" parent="1">
          <mxGeometry x="80" y="199" width="50" height="50" as="geometry" />
        </mxCell>
        <mxCell id="EvsKpGBrO3yVTtWsbhh3-12" value="" style="endArrow=classic;html=1;rounded=0;" edge="1" parent="1">
          <mxGeometry width="50" height="50" relative="1" as="geometry">
            <mxPoint x="120" y="470" as="sourcePoint" />
            <mxPoint x="280" y="470" as="targetPoint" />
          </mxGeometry>
        </mxCell>
        <mxCell id="EvsKpGBrO3yVTtWsbhh3-13" value="&lt;b&gt;Upload .csv file to s3 Bucket&lt;/b&gt;" style="text;html=1;align=center;verticalAlign=middle;whiteSpace=wrap;rounded=0;" vertex="1" parent="1">
          <mxGeometry x="120" y="435" width="170" height="30" as="geometry" />
        </mxCell>
        <mxCell id="EvsKpGBrO3yVTtWsbhh3-14" value="&lt;b&gt;API Gateway&lt;/b&gt;" style="text;html=1;align=center;verticalAlign=middle;whiteSpace=wrap;rounded=0;" vertex="1" parent="1">
          <mxGeometry x="308.25" y="268" width="60" height="30" as="geometry" />
        </mxCell>
        <mxCell id="EvsKpGBrO3yVTtWsbhh3-16" value="&lt;b&gt;S3 Bucket&lt;/b&gt;" style="text;whiteSpace=wrap;html=1;" vertex="1" parent="1">
          <mxGeometry x="308.25" y="510.5" width="100" height="40" as="geometry" />
        </mxCell>
        <mxCell id="EvsKpGBrO3yVTtWsbhh3-17" value="&lt;b&gt;AWS CloudWatch&lt;/b&gt;" style="text;whiteSpace=wrap;html=1;align=center;" vertex="1" parent="1">
          <mxGeometry x="560" y="150" width="100" height="40" as="geometry" />
        </mxCell>
        <mxCell id="EvsKpGBrO3yVTtWsbhh3-18" value="&lt;b&gt;Lambda Function&lt;/b&gt;" style="text;whiteSpace=wrap;html=1;" vertex="1" parent="1">
          <mxGeometry x="560" y="385" width="130" height="40" as="geometry" />
        </mxCell>
        <mxCell id="EvsKpGBrO3yVTtWsbhh3-19" value="" style="endArrow=classic;html=1;rounded=0;" edge="1" parent="1">
          <mxGeometry width="50" height="50" relative="1" as="geometry">
            <mxPoint x="140" y="230" as="sourcePoint" />
            <mxPoint x="290" y="230" as="targetPoint" />
          </mxGeometry>
        </mxCell>
        <mxCell id="EvsKpGBrO3yVTtWsbhh3-20" value="&lt;b&gt;Send HTTP request&lt;/b&gt;" style="text;whiteSpace=wrap;html=1;" vertex="1" parent="1">
          <mxGeometry x="150" y="199" width="180" height="40" as="geometry" />
        </mxCell>
        <mxCell id="EvsKpGBrO3yVTtWsbhh3-21" value="&lt;b&gt;&lt;font color=&quot;#000099&quot;&gt;Client&lt;/font&gt;&lt;/b&gt;" style="text;whiteSpace=wrap;html=1;" vertex="1" parent="1">
          <mxGeometry x="90" y="249" width="140" height="40" as="geometry" />
        </mxCell>
        <mxCell id="EvsKpGBrO3yVTtWsbhh3-22" value="" style="endArrow=classic;html=1;rounded=0;" edge="1" parent="1">
          <mxGeometry width="50" height="50" relative="1" as="geometry">
            <mxPoint x="400" y="220" as="sourcePoint" />
            <mxPoint x="560" y="320" as="targetPoint" />
          </mxGeometry>
        </mxCell>
        <mxCell id="EvsKpGBrO3yVTtWsbhh3-23" value="" style="endArrow=classic;html=1;rounded=0;" edge="1" parent="1">
          <mxGeometry width="50" height="50" relative="1" as="geometry">
            <mxPoint x="400" y="475" as="sourcePoint" />
            <mxPoint x="550" y="375" as="targetPoint" />
          </mxGeometry>
        </mxCell>
        <mxCell id="EvsKpGBrO3yVTtWsbhh3-24" value="&lt;b&gt;Trigger Lambda function with s3 Notification&lt;/b&gt;" style="text;html=1;align=center;verticalAlign=middle;whiteSpace=wrap;rounded=0;rotation=-35;" vertex="1" parent="1">
          <mxGeometry x="360" y="390" width="200" height="30" as="geometry" />
        </mxCell>
        <mxCell id="EvsKpGBrO3yVTtWsbhh3-25" value="&lt;b&gt;Invoke lambda function&lt;/b&gt;" style="text;whiteSpace=wrap;html=1;rotation=30;" vertex="1" parent="1">
          <mxGeometry x="400" y="268" width="270" height="40" as="geometry" />
        </mxCell>
        <mxCell id="EvsKpGBrO3yVTtWsbhh3-31" value="" style="endArrow=classic;html=1;rounded=0;" edge="1" parent="1">
          <mxGeometry width="50" height="50" relative="1" as="geometry">
            <mxPoint x="610" y="290" as="sourcePoint" />
            <mxPoint x="610" y="210" as="targetPoint" />
          </mxGeometry>
        </mxCell>
        <mxCell id="EvsKpGBrO3yVTtWsbhh3-32" value="&lt;b&gt;Put logs in cloudwatch&lt;/b&gt;" style="text;html=1;align=center;verticalAlign=middle;whiteSpace=wrap;rounded=0;" vertex="1" parent="1">
          <mxGeometry x="610" y="239" width="90" height="30" as="geometry" />
        </mxCell>
        <mxCell id="EvsKpGBrO3yVTtWsbhh3-33" value="" style="endArrow=classic;html=1;rounded=0;exitX=1;exitY=0.5;exitDx=0;exitDy=0;" edge="1" parent="1" source="EvsKpGBrO3yVTtWsbhh3-25">
          <mxGeometry width="50" height="50" relative="1" as="geometry">
            <mxPoint x="500" y="350" as="sourcePoint" />
            <mxPoint x="930" y="356" as="targetPoint" />
          </mxGeometry>
        </mxCell>
        <mxCell id="EvsKpGBrO3yVTtWsbhh3-34" value="Extract data to&lt;b&gt; dynamoDB database&lt;/b&gt;" style="text;html=1;align=center;verticalAlign=middle;whiteSpace=wrap;rounded=0;" vertex="1" parent="1">
          <mxGeometry x="670" y="324" width="220" height="30" as="geometry" />
        </mxCell>
      </root>
    </mxGraphModel>
  </diagram>
</mxfile>
